<svg xmlns="http://www.w3.org/2000/svg" width="79.565" height="23.04" fill="none"><path fill="#01996D" fill-rule="evenodd" d="M28.41 0h-4.5v22.67h4.5V0Zm2.93 3.51c0-.72.25-1.34.75-1.84.52-.52 1.14-.78 1.86-.78.72 0 1.33.26 1.83.78.52.5.78 1.12.78 1.84 0 .71-.26 1.34-.78 1.86-.5.5-1.11.75-1.83.75s-1.34-.25-1.86-.75c-.5-.52-.75-1.15-.75-1.86Zm24.47 0q0-.58.21-1.06.19-.42.54-.78c.52-.52 1.14-.78 1.86-.78.72 0 1.33.26 1.83.78.52.5.78 1.12.78 1.84 0 .71-.26 1.34-.78 1.86-.5.5-1.11.75-1.83.75s-1.34-.25-1.86-.75q-.38-.4-.57-.87-.18-.46-.18-.99ZM9.17 1.43h3.88l9.24 21.24h-5.28l-1.83-4.5H6.92l-1.77 4.5H0L9.17 1.43Zm1.81 6.19-2.58 6.6h5.19l-2.61-6.6Zm53.01 4.62c-.42.93-.63 1.99-.63 3.14 0 1.16.21 2.22.63 3.16q.47 1.05 1.2 1.89.24.28.51.54c.74.65 1.6 1.16 2.58 1.53 1 .36 2.06.54 3.18.54s2.17-.18 3.15-.54c1-.37 1.86-.88 2.58-1.53.74-.68 1.32-1.49 1.74-2.43q.63-1.42.63-3.16 0-1.74-.63-3.14c-.42-.94-1-1.74-1.74-2.4a7.032 7.032 0 0 0-2.58-1.56c-.98-.37-2.03-.55-3.15-.55s-2.18.18-3.18.55q-1.1.4-2 1.08-.3.22-.58.48a7.19 7.19 0 0 0-1.71 2.4ZM31.7 8.1h4.5v14.57h-4.5V8.1Zm11.07 0h-4.86l6.03 14.57h4.77L54.47 8.1h-4.53L46.52 18h-.06l-3.69-9.9Zm13.4 0h4.5v14.57h-4.5V8.1Zm12.62 9.96c-.62-.69-.93-1.57-.93-2.68 0-1.09.31-1.99.93-2.66q.19-.21.41-.37.89-.65 2.26-.65c1.14 0 2.02.34 2.64 1.02q.2.21.36.45.6.91.6 2.21 0 1.31-.6 2.22-.16.24-.36.46c-.62.68-1.5 1.02-2.64 1.02q-1.37 0-2.26-.66-.22-.16-.41-.36Z"/></svg>