<svg xmlns="http://www.w3.org/2000/svg" width="106.087" height="30.72" fill="none"><path fill="#FFF" fill-rule="evenodd" d="M37.88 0h-6v30.24h6V0Zm4.91 2.24c-.66.66-1 1.48-1 2.44s.34 1.78 1 2.48c.7.66 1.52 1 2.48 1s1.78-.34 2.44-1c.7-.7 1.04-1.52 1.04-2.48s-.34-1.78-1.04-2.44c-.66-.7-1.48-1.04-2.44-1.04s-1.78.34-2.48 1.04Zm32.62 0c-.67.66-1 1.48-1 2.44s.33 1.78 1 2.48c.69.66 1.52 1 2.48 1s1.77-.34 2.44-1c.69-.7 1.04-1.52 1.04-2.48s-.35-1.78-1.04-2.44c-.67-.7-1.48-1.04-2.44-1.04s-1.79.34-2.48 1.04ZM17.4 1.92h-5.16L0 30.24h6.87l2.36-6h11.01l2.44 6h7.04L17.4 1.92Zm-6.2 17.04 3.44-8.8 3.48 8.8H11.2Zm74.12-2.64q-.84 1.88-.84 4.2c0 1.54.28 2.94.84 4.2.56 1.25 1.32 2.33 2.28 3.24.99.88 2.14 1.56 3.44 2.04 1.34.48 2.75.72 4.24.72 1.5 0 2.9-.24 4.2-.72 1.34-.48 2.48-1.16 3.44-2.04a9.77 9.77 0 0 0 2.32-3.24c.56-1.26.84-2.66.84-4.2q0-2.32-.84-4.2a9.223 9.223 0 0 0-2.32-3.2c-.96-.91-2.1-1.6-3.44-2.08-1.3-.48-2.7-.72-4.2-.72-1.49 0-2.9.24-4.24.72-1.3.48-2.45 1.17-3.44 2.08a9.52 9.52 0 0 0-2.28 3.2ZM48.27 10.8h-6v19.44h6V10.8Zm8.75 0h-6.48l8.04 19.44h6.36l7.68-19.44h-6.04L62.02 24h-.08l-4.92-13.2Zm23.87 0h-6v19.44h6V10.8Zm10.83 13.28c-.82-.91-1.24-2.1-1.24-3.56 0-1.47.42-2.66 1.24-3.56.86-.91 2.04-1.36 3.56-1.36s2.7.45 3.52 1.36q.27.28.49.61.79 1.21.79 2.95 0 1.73-.79 2.94-.22.33-.49.62c-.82.9-2 1.36-3.52 1.36s-2.7-.46-3.56-1.36Z"/></svg>